# The Great Editor v0.0.1
mtllib floor_2.mtl
o floor_2
v 9.790011922618369 -43.748748125072154 0
v 9.790011922618369 -43.748748125072154 -0.1
v 11.704330602669138 -44.988885042883005 0
v 11.704330602669138 -44.988885042883005 -0.1
v 37.21048805815164 -44.988885042883005 0
v 37.21048805815164 -44.988885042883005 -0.1
v 50.88214684050618 -44.988885042883005 0
v 50.88214684050618 -44.988885042883005 -0.1
v 50.88214684050618 -40.968401215337906 0
v 50.88214684050618 -40.968401215337906 -0.1
v 55.61154186377451 -40.968401215337906 0
v 55.61154186377451 -40.968401215337906 -0.1
v 55.58933117957007 -51.94117918541599 0
v 55.58933117957007 -51.94117918541599 -0.1
v 12.565459020806903 -51.90690742663748 0
v 12.565459020806903 -51.90690742663748 -0.1
v 7.3983116033998755 -46.16583592938737 0
v 7.3983116033998755 -46.16583592938737 -0.1
vt 9.790011922618369 -43.748748125072154 0
vt 11.704330602669138 -44.988885042883005 0
vt 37.21048805815164 -44.988885042883005 0
vt 50.88214684050618 -44.988885042883005 0
vt 50.88214684050618 -40.968401215337906 0
vt 55.61154186377451 -40.968401215337906 0
vt 55.58933117957007 -51.94117918541599 0
vt 12.565459020806903 -51.90690742663748 0
vt 7.3983116033998755 -46.16583592938737 0
vn 0 0 1
vn 0 0 -1
usemtl floor_2
s off
f 17/9/1 15/8/1 3/2/1
f 4/2/2 16/8/2 18/9/2
f 17/9/1 3/2/1 1/1/1
f 2/1/2 4/2/2 18/9/2
f 9/5/1 7/4/1 11/6/1
f 12/6/2 8/4/2 10/5/2
f 11/6/1 7/4/1 13/7/1
f 14/7/2 8/4/2 12/6/2
f 13/7/1 7/4/1 5/3/1
f 6/3/2 8/4/2 14/7/2
f 13/7/1 5/3/1 15/8/1
f 16/8/2 6/3/2 14/7/2
f 15/8/1 5/3/1 3/2/1
f 4/2/2 6/3/2 16/8/2
